<?xml version="1.0" encoding="UTF-8" standalone="yes"?>
<!DOCTYPE svg PUBLIC "-//W3C//DTD SVG 1.1//EN" "http://www.w3.org/Graphics/SVG/1.1/DTD/svg11.dtd">

<svg width="300" height="300" viewBox="0 0 300 300" xmlns="http://www.w3.org/2000/svg" xmlns:xlink="http://www.w3.org/1999/xlink" version="1.1" baseProfile="full">
    <g transform="scale(1.000000,-1.000000) translate(0,-300)">
        <path d="M 1.000000 130.614788 Q 1.000000 168.864513 18.538083 198.094652 Q 36.076167 227.324791 67.895261 243.610154 Q 99.714355 259.895517 141.137638 259.895517 Q 182.560921 259.895517 214.212986 243.610154 Q 245.865050 227.324791 263.319619 197.927622 Q 280.774188 168.530454 280.774188 130.614788 Q 280.774188 92.198034 263.319619 62.800865 Q 245.865050 33.403697 214.045956 17.201848 Q 182.226862 1.000000 141.137638 1.000000 Q 100.883561 1.000000 68.897437 17.201848 Q 36.911314 33.403697 18.955657 62.800865 Q 1.000000 92.198034 1.000000 130.614788 Z M 210.621854 130.948847 Q 210.621854 153.831870 202.270386 172.622673 Q 193.918918 191.413477 178.134643 202.520930 Q 162.350367 213.628383 141.137638 213.628383 Q 119.924909 213.628383 104.224148 202.520930 Q 88.523388 191.413477 80.088405 172.622673 Q 71.653422 153.831870 71.653422 130.948847 Q 71.653422 106.896618 80.255434 87.771756 Q 88.857446 68.646893 104.558207 57.706470 Q 120.258967 46.766046 140.803579 46.766046 Q 162.016309 46.766046 177.967613 57.706470 Q 193.918918 68.646893 202.270386 87.771756 Q 210.621854 106.896618 210.621854 130.948847 Z" transform="scale(1.000000,1.000000) translate(15.931088,19.562658)" fill="#ff9700" opacity="1.000000"></path>
    </g>
</svg>