<?xml version="1.0" encoding="UTF-8" standalone="yes"?>
<!DOCTYPE svg PUBLIC "-//W3C//DTD SVG 1.1//EN" "http://www.w3.org/Graphics/SVG/1.1/DTD/svg11.dtd">

<svg width="300" height="300" viewBox="0 0 300 300" xmlns="http://www.w3.org/2000/svg" xmlns:xlink="http://www.w3.org/1999/xlink" version="1.1" baseProfile="full">
    <g transform="scale(1.000000,-1.000000) translate(0,-300)">
        <path d="M 213.294324 235.175171 L 213.294324 255.719783 L 256.053842 255.719783 L 256.053842 166.526102 L 213.294324 166.526102 Q 205.443944 188.741007 186.486111 201.936327 Q 167.528278 215.131647 144.311196 215.131647 Q 122.764408 215.131647 106.144986 205.193400 Q 89.525564 195.255153 80.505978 177.132466 Q 71.486392 159.009780 71.486392 134.957551 Q 71.486392 94.035357 91.279372 70.400702 Q 111.072352 46.766046 145.647431 46.766046 Q 168.530454 46.766046 183.229038 57.539440 Q 197.927622 68.312834 204.107709 88.523388 L 159.677898 88.523388 L 159.677898 131.282905 L 278.101718 131.282905 Q 278.101718 90.193681 261.816355 60.963542 Q 245.530992 31.733403 215.048132 16.366702 Q 184.565273 1.000000 142.139814 1.000000 Q 99.380297 1.000000 67.394173 16.533731 Q 35.408049 32.067462 18.204025 61.297601 Q 1.000000 90.527740 1.000000 130.614788 Q 1.000000 168.196395 18.454569 197.593564 Q 35.909137 226.990732 66.308482 243.443125 Q 96.707827 259.895517 134.957551 259.895517 Q 185.400420 259.895517 213.294324 235.175171 Z" transform="scale(1.000000,1.000000) translate(17.267323,19.562658)" fill="#ff9700" opacity="1.000000"></path>
    </g>
</svg>