<?xml version="1.0" encoding="UTF-8" standalone="yes"?>
<!DOCTYPE svg PUBLIC "-//W3C//DTD SVG 1.1//EN" "http://www.w3.org/Graphics/SVG/1.1/DTD/svg11.dtd">

<svg width="300" height="300" viewBox="0 0 300 300" xmlns="http://www.w3.org/2000/svg" xmlns:xlink="http://www.w3.org/1999/xlink" version="1.1" baseProfile="full">
    <g transform="scale(1.000000,-1.000000) translate(0,-300)">
        <path d="M 233.671907 184.064185 Q 233.671907 161.014133 222.898513 145.313372 Q 212.125118 129.612612 190.244272 119.757879 L 230.832407 43.759518 L 263.403134 43.759518 L 263.403134 1.000000 L 186.736655 1.000000 L 129.946670 111.072352 L 101.217620 111.072352 L 101.217620 43.759518 L 132.786170 43.759518 L 132.786170 1.000000 L 1.000000 1.000000 L 1.000000 43.759518 L 35.575079 43.759518 L 35.575079 209.953737 L 1.000000 209.953737 L 1.000000 252.713254 L 144.645255 252.713254 Q 186.402596 252.713254 210.037251 235.091656 Q 233.671907 217.470058 233.671907 184.064185 Z M 165.189867 181.224686 Q 165.189867 195.589211 156.003252 202.771474 Q 146.816636 209.953737 130.948847 209.953737 L 101.217620 209.953737 L 101.217620 151.493459 L 125.269848 151.493459 Q 165.189867 151.493459 165.189867 181.224686 Z" transform="scale(1.000000,1.000000) translate(24.616615,23.153789)" fill="#ff9700" opacity="1.000000"></path>
    </g>
</svg>