<?xml version="1.0" encoding="UTF-8" standalone="yes"?>
<!DOCTYPE svg PUBLIC "-//W3C//DTD SVG 1.1//EN" "http://www.w3.org/Graphics/SVG/1.1/DTD/svg11.dtd">

<svg width="300" height="300" viewBox="0 0 300 300" xmlns="http://www.w3.org/2000/svg" xmlns:xlink="http://www.w3.org/1999/xlink" version="1.1" baseProfile="full">
    <g transform="scale(1.000000,-1.000000) translate(0,-300)">
        <path d="M 96.039709 212.960265 L 96.039709 95.371592 Q 96.039709 74.492921 99.964899 63.218439 Q 103.890089 51.943957 110.905323 47.684708 Q 117.920556 43.425459 129.278553 43.425459 Q 146.649607 43.425459 155.084590 55.368059 Q 163.519573 67.310658 163.519573 97.375944 L 163.519573 212.960265 L 139.133286 212.960265 L 139.133286 255.719783 L 239.684964 255.719783 L 239.684964 212.960265 L 208.951561 212.960265 L 208.951561 85.349830 Q 208.951561 41.254077 188.991551 21.127039 Q 169.031542 1.000000 122.430349 1.000000 Q 89.191505 1.000000 69.398525 9.852556 Q 49.605545 18.705113 40.168386 39.583784 Q 30.731227 60.462454 30.731227 96.707827 L 30.731227 212.960265 L 1.000000 212.960265 L 1.000000 255.719783 L 121.094114 255.719783 L 121.094114 212.960265 Z" transform="scale(1.000000,1.000000) translate(36.475700,21.650525)" fill="#ff9700" opacity="1.000000"></path>
    </g>
</svg>